<svg xmlns="http://www.w3.org/2000/svg" baseProfile="tiny" version="1.2" viewBox="0 0 155.1 40"><path fill="#ec5600" d="M33.3 1.3c-4 0-7.3 4-7.3 9 0 4 2 7.5 5.1 8.6l.9.4v18c0 .8.6 1.4 1.3 1.4s1.4-.6 1.4-1.4v-18l.8-.4c3.1-1.1 5.2-4.6 5.2-8.6 0-5-3.3-9-7.4-9Zm0 15.4c-2.6 0-4.6-2.8-4.6-6.4s2-6.3 4.6-6.3S38 6.8 38 10.3s-2 6.4-4.7 6.4ZM20 40c1.4 0 2.9-.2 4.3-.5.3 0 .6-.3.8-.5.2-.3.3-.7.2-1 0-.4-.3-.7-.6-.9-.3-.2-.6-.3-1-.2A17.3 17.3 0 1 1 20 2.6c.7 0 1.3-.5 1.3-1.3S20.7 0 20 0a20 20 0 0 0 0 40Z"/><g fill="#4d592b"><path d="M55.7 32.5h-4.2l-1.6.2.4-1.4h1.2l1.8-.4a2 2 0 0 0 1-.8l.6-1.6L59 13.3l.3-1.7a1 1 0 0 0-.5-.8c-.3-.2-.9-.3-1.6-.3l-1.3-.1.4-1.3A51.2 51.2 0 0 1 60 9H62.3a53.2 53.2 0 0 0 4 0c2.5 0 4.3.4 5.6 1.3s1.8 2 1.8 3.7-.7 3-2 4.1a12 12 0 0 1-6 2.1 9 9 0 0 1 5 1.8c1 1 1.7 2.2 1.7 3.7s-.5 2.7-1.4 3.7c-.9 1-2.1 1.8-3.7 2.3a18.6 18.6 0 0 1-7.3.8 86 86 0 0 0-4.3 0Zm5.2-1.2c1.6 0 2.9-.3 4-.7 1-.5 1.9-1.2 2.5-2 .6-1 .9-2 .9-3.1 0-1.5-.5-2.6-1.5-3.4-1-.7-2.3-1.1-4.1-1.1h-2.3l.3-1.2h2.6c1.2 0 2.4-.3 3.4-.7 1-.5 1.8-1.2 2.3-2 .5-.9.8-1.9.8-3 0-1.2-.3-2.1-1-2.8-.7-.6-1.7-.9-3-.9h-2l-5.1 18c-.2.8-.3 1.4-.2 1.8 0 .4.2.7.6.9l1.8.2ZM79.2 24l1-4c.3-1 .4-1.7.2-2.2-.2-.6-.6-.8-1.2-.8a2 2 0 0 0-1.4.5l-1.2 1.7-.7 1.2h-1.3l.8-1.5c.4-.8 1-1.4 1.4-2 .5-.6 1-1 1.7-1.4.6-.3 1.3-.5 2-.5 1 0 1.9.2 2.4.7.6.5.9 1.2 1 2a7 7 0 0 1-.3 3l-.9 3.4h-3.6Zm-2.5 8.6 2.5-8.5h3.6l-2.4 8.5h-3.7ZM92.1 5l.6.7-7 6.9h-1.2l-3.1-7 .9-.6L87 10h-1.5L92.1 5Zm-3.4 16.6c-.5 0-.8-.1-1-.4-.3-.2-.4-.5-.4-1 0-.2 0-.6.3-1l.5-1c.2-.2.3-.5.3-.8 0-.4-.3-.6-1-.6-.6 0-1.3.3-2 .8s-1.3 1.2-1.8 2v-.9c.6-1.2 1.4-2.1 2.3-2.7s2-1 3-1c.8 0 1.5.2 2 .7.4.4.6 1 .6 2a4.6 4.6 0 0 1-1.4 3.3 2 2 0 0 1-1.4.6ZM97.7 28.2c-.3 1-.4 1.7-.2 2.2 0 .5.4.8 1 .8.5 0 1-.2 1.4-.6.5-.4.9-1 1.3-1.7l.6-1.2h1.2l-.7 1.5c-.4.8-.9 1.5-1.4 2.1-.5.6-1 1-1.6 1.3-.6.4-1.3.5-2 .5-1.1 0-2-.2-2.4-.7-.6-.5-.9-1-1-2 0-.7 0-1.7.4-2.8l2.7-7.7c.2-1 .3-1.7.2-2.2 0-.5-.5-.7-1-.7a2 2 0 0 0-1.5.5l-1.2 1.7-.6 1.2h-1.3l.8-1.5c.4-.8.8-1.4 1.3-2 .5-.6 1-1.1 1.7-1.4.6-.3 1.3-.5 2-.5 1 0 1.9.2 2.4.7.6.5.9 1.1 1 2 0 .7-.1 1.7-.5 2.8l-2.6 7.7Zm.9-15.5-.6-.5a39.3 39.3 0 0 0 3.3-4.8c.4-.7.8-1.1 1.2-1.5.5-.5 1-.8 1.5-.8s1 0 1.4.4c.3.4.4.8.3 1.3 0 .4-.3 1-.9 1.5l-1.5 1.1-2 1.4-2.7 2ZM109.7 33c-1.3 0-2.4 0-3.4-.4s-1.8-.9-2.3-1.5c-.6-.7-.8-1.4-.8-2.2 0-.7.1-1.2.5-1.6.4-.4.9-.6 1.5-.6.5 0 1 .2 1.2.5s.5.7.5 1.3v1l-.1.7c0 .6.3 1 .7 1.3.5.3 1.2.4 2 .4 1.3 0 2.3-.3 3-.8.6-.6 1-1.3 1-2.1 0-.7-.2-1.3-.5-1.7-.3-.5-.8-1-1.3-1.4a37 37 0 0 0-1.8-1.2l-1.7-1.2c-.5-.5-1-1-1.3-1.6a4 4 0 0 1-.5-2c0-1.4.6-2.6 1.8-3.5 1.2-1 2.8-1.4 4.7-1.4a9 9 0 0 1 3.1.5 5 5 0 0 1 2.1 1.4c.6.6.8 1.3.8 2 0 .5-.1 1-.5 1.4-.3.3-.7.5-1.3.5-.5 0-.9-.1-1.2-.4l-.5-1.1.1-.9v-.7c0-.5-.2-.9-.7-1-.4-.3-1-.5-1.8-.5-1 0-1.8.3-2.4.7-.5.5-.8 1-.8 1.8 0 .6.2 1.2.5 1.6.3.5.7 1 1.3 1.4a42.7 42.7 0 0 0 3.4 2.5c.6.4 1 1 1.4 1.5.4.6.5 1.3.5 2.1 0 1-.3 2-1 2.7-.6.8-1.4 1.4-2.5 1.9-1 .4-2.3.7-3.7.7Zm11.2-28 .6.7-7 6.9h-1.2l-3.1-7 .9-.6 4.8 4.9h-1.5L121 5ZM119.3 32.6l2.4-8.5h3.7l-2.5 8.5h-3.6Zm2.4-8.5 3.5-12.2c.2-.8.2-1.4.1-1.8 0-.5-.4-.8-.9-1-.5-.2-1.3-.3-2.4-.3l.4-1.3c1.6 0 3-.2 4.4-.4 1.3-.2 2.5-.5 3.5-1l-5 18h-3.6Zm10.7 9c-1 0-1.9-.3-2.4-.9-.6-.6-1-1.5-1.2-2.8l-.5-3.5c-.2-1-.4-1.8-.7-2.1s-.9-.6-1.6-.6h-1.3l.4-1h1a4.1 4.1 0 0 0 3.7-2c.4-.4.7-1 1-1.6l1.1-1.8c.4-.5 1-1 1.5-1.3.5-.3 1.3-.5 2.2-.5s1.5.2 2 .5c.4.3.6.9.6 1.5s-.1 1-.5 1.3c-.3.4-.7.6-1.2.6-.4 0-.7-.1-.9-.3-.2 0-.4-.3-.6-.4l-.6-.5-.7-.2c-.4 0-.7.2-1 .5-.3.3-.6.7-.8 1.2l-1 1.5c-.5.5-1 1-1.7 1.4v-.3c.8.2 1.4.6 1.7 1.2.4.6.7 1.5.8 2.7l.6 3.3c.1.7.3 1.3.5 1.6.2.3.6.5 1 .5s.8-.2 1.2-.5l1.2-1.7.6-1.2h1.3l-1 2-1.2 1.7c-.5.6-1 1-1.6 1.3-.5.3-1.2.4-1.9.4ZM145.2 33.1c-1.9 0-3.3-.6-4.3-1.7a7.2 7.2 0 0 1-1.5-5c0-1.4.2-2.9.8-4.3.5-1.4 1.3-2.6 2.1-3.7 1-1 2-1.9 3.2-2.5s2.4-1 3.7-1c1.9 0 3.3.7 4.3 1.8 1 1.2 1.5 2.8 1.5 4.9a12.2 12.2 0 0 1-6.1 10.6 8 8 0 0 1-3.8 1Zm.2-1.3a3 3 0 0 0 1.7-.6c.6-.4 1.2-1 1.7-1.7l1.4-2.5a17.4 17.4 0 0 0 1.2-6.3c0-1.5-.2-2.6-.6-3.3a2 2 0 0 0-1.8-1.1 3 3 0 0 0-1.8.6c-.6.4-1.1 1-1.6 1.8a14 14 0 0 0-2.3 5.5c-.2 1-.3 2.1-.3 3.2a7 7 0 0 0 .6 3.3c.4.7 1 1.1 1.8 1.1Z"/></g></svg>